<svg width="102" height="32" viewBox="0 0 102 32" fill="none" xmlns="http://www.w3.org/2000/svg">
<path fill-rule="evenodd" clip-rule="evenodd" d="M16.8745 4.68165C17.5027 4.0535 18.5211 4.0535 19.1492 4.68165L25.0313 10.5639L19.1225 16.2043C18.4799 16.8176 17.4618 16.794 16.8484 16.1514C16.235 15.5088 16.2587 14.4907 16.9013 13.8773L18.7155 12.1456H14.795C11.6562 12.1456 9.11177 14.69 9.11177 17.8288C9.11177 20.9675 11.6562 23.5119 14.795 23.5119H22.73C23.6182 23.5119 24.3386 24.232 24.3386 25.1205C24.3386 26.0087 23.6182 26.7288 22.73 26.7288H14.795C9.87958 26.7288 5.8949 22.7442 5.8949 17.8288C5.8949 12.9134 9.87958 8.92866 14.795 8.92866H18.8469L16.8745 6.95635C16.2464 6.32821 16.2464 5.3098 16.8745 4.68165Z" fill="#1F8459"/>
<path d="M37.2026 14.6548C37.5359 14.1206 37.9679 13.7018 38.4986 13.3983C39.0417 13.0948 39.6588 12.9431 40.35 12.9431V15.6199H39.665C38.8503 15.6199 38.2332 15.808 37.8136 16.1843C37.4063 16.5607 37.2026 17.2162 37.2026 18.151V23.1767H34.6107V13.0887H37.2026V14.6548Z" fill="#1F8459"/>
<path d="M51.6303 17.9142C51.6303 18.2784 51.6056 18.6062 51.5562 18.8975H44.0582C44.1199 19.6259 44.3791 20.1965 44.8358 20.6092C45.2924 21.022 45.854 21.2283 46.5205 21.2283C47.4832 21.2283 48.1682 20.8217 48.5755 20.0083H51.3711C51.0749 20.9795 50.5071 21.7807 49.6678 22.412C48.8285 23.0311 47.7979 23.3406 46.576 23.3406C45.5887 23.3406 44.7 23.1282 43.9101 22.7033C43.1325 22.2663 42.5216 21.6532 42.0772 20.8642C41.6452 20.0751 41.4292 19.1646 41.4292 18.1327C41.4292 17.0887 41.6452 16.1722 42.0772 15.3831C42.5092 14.5941 43.114 13.9871 43.8916 13.5622C44.6691 13.1373 45.564 12.9249 46.576 12.9249C47.5511 12.9249 48.4212 13.1312 49.1865 13.544C49.9641 13.9567 50.5627 14.5455 50.9823 15.3103C51.4143 16.0629 51.6303 16.9309 51.6303 17.9142ZM48.9458 17.1859C48.9335 16.5303 48.6928 16.0083 48.2238 15.6199C47.7548 15.2192 47.1808 15.0189 46.502 15.0189C45.8602 15.0189 45.3171 15.2132 44.8728 15.6016C44.4408 15.978 44.1754 16.506 44.0767 17.1859H48.9458Z" fill="#1F8459"/>
<path d="M58.2246 15.1828H56.4288V23.1767H53.7999V15.1828H52.6335V13.0887H53.7999V12.5789C53.7999 11.3406 54.1578 10.4302 54.8736 9.84748C55.5895 9.26478 56.6695 8.99164 58.1135 9.02805V11.1768C57.4841 11.1646 57.0459 11.2678 56.7991 11.4863C56.5522 11.7048 56.4288 12.0994 56.4288 12.6699V13.0887H58.2246V15.1828Z" fill="#1F8459"/>
<path d="M69.587 13.0887V23.1767H66.9765V21.9021C66.6433 22.3391 66.2051 22.6851 65.6621 22.94C65.1313 23.1828 64.5512 23.3042 63.9218 23.3042C63.1195 23.3042 62.4098 23.1403 61.7927 22.8126C61.1756 22.4726 60.688 21.981 60.3301 21.3376C59.9845 20.6821 59.8117 19.9051 59.8117 19.0068V13.0887H62.4036V18.6426C62.4036 19.4438 62.6073 20.0629 63.0146 20.5C63.4219 20.9249 63.9773 21.1373 64.6808 21.1373C65.3967 21.1373 65.9583 20.9249 66.3656 20.5C66.7729 20.0629 66.9765 19.4438 66.9765 18.6426V13.0887H69.587Z" fill="#1F8459"/>
<path d="M77.828 12.9431C79.0499 12.9431 80.0373 13.3255 80.7902 14.0903C81.5431 14.8429 81.9195 15.8991 81.9195 17.2587V23.1767H79.3276V17.6047C79.3276 16.8035 79.124 16.1904 78.7167 15.7655C78.3094 15.3285 77.7539 15.11 77.0504 15.11C76.3346 15.11 75.7668 15.3285 75.3472 15.7655C74.9399 16.1904 74.7362 16.8035 74.7362 17.6047V23.1767H72.1443V13.0887H74.7362V14.3452C75.0818 13.9082 75.52 13.5683 76.0507 13.3255C76.5938 13.0705 77.1862 12.9431 77.828 12.9431Z" fill="#1F8459"/>
<path d="M83.7178 18.0963C83.7178 17.0766 83.9215 16.1722 84.3288 15.3831C84.7484 14.5941 85.3161 13.9871 86.032 13.5622C86.7479 13.1373 87.544 12.9249 88.4203 12.9249C89.0868 12.9249 89.7224 13.0705 90.3272 13.3619C90.932 13.6411 91.4133 14.0174 91.7712 14.4909V9.7018H94.4002V23.1767H91.7712V21.6836C91.4503 22.1813 90.9998 22.5819 90.4198 22.8854C89.8397 23.1889 89.167 23.3406 88.4018 23.3406C87.5378 23.3406 86.7479 23.1221 86.032 22.6851C85.3161 22.2481 84.7484 21.635 84.3288 20.8459C83.9215 20.0447 83.7178 19.1282 83.7178 18.0963ZM91.7898 18.1327C91.7898 17.5136 91.6663 16.9856 91.4195 16.5485C91.1726 16.0994 90.8394 15.7595 90.4198 15.5288C90.0001 15.286 89.5496 15.1646 89.0683 15.1646C88.5869 15.1646 88.1426 15.2799 87.7353 15.5106C87.328 15.7412 86.9947 16.0812 86.7355 16.5303C86.4887 16.9673 86.3653 17.4893 86.3653 18.0963C86.3653 18.7033 86.4887 19.2374 86.7355 19.6988C86.9947 20.1479 87.328 20.4939 87.7353 20.7367C88.1549 20.9795 88.5992 21.1009 89.0683 21.1009C89.5496 21.1009 90.0001 20.9855 90.4198 20.7549C90.8394 20.5121 91.1726 20.1722 91.4195 19.7352C91.6663 19.286 91.7898 18.7519 91.7898 18.1327Z" fill="#1F8459"/>
</svg>
